<svg xmlns="http://www.w3.org/2000/svg" viewBox="0 0 1400 1050" role="img" aria-labelledby="title desc">
  <title id="title">Chapel light placeholder</title>
  <desc id="desc">Three stained glass arches and votive candles.</desc>
  <rect width="1400" height="1050" fill="#f4ecdf" />
  <rect x="88" y="88" width="1224" height="874" rx="42" fill="#fbf8f2" stroke="#d8c2a7" stroke-width="4" />
  <rect x="164" y="160" width="1072" height="574" rx="34" fill="#ece3d5" />
  <g transform="translate(226 176)">
    <path d="M0 184C0 82 78 0 176 0s176 82 176 184v390H0V184Z" fill="#7a1e2c" />
    <path d="M370 184C370 82 448 0 546 0s176 82 176 184v390H370V184Z" fill="#264566" />
    <path d="M740 184C740 82 818 0 916 0s176 82 176 184v390H740V184Z" fill="#36553d" />
    <g fill="#f4e7d1" opacity="0.92">
      <path d="M72 152h208v34H72z" />
      <path d="M442 152h208v34H442z" />
      <path d="M812 152h208v34H812z" />
      <path d="M72 256h208v26H72z" opacity="0.8" />
      <path d="M442 256h208v26H442z" opacity="0.8" />
      <path d="M812 256h208v26H812z" opacity="0.8" />
      <circle cx="176" cy="86" r="48" fill="#d4af37" />
      <circle cx="546" cy="86" r="48" fill="#d4af37" />
      <circle cx="916" cy="86" r="48" fill="#d4af37" />
    </g>
  </g>
  <g transform="translate(360 760)">
    <rect x="0" y="72" width="680" height="14" rx="7" fill="#c6ab87" />
    <g>
      <rect x="40" y="0" width="70" height="86" rx="20" fill="#fff4db" />
      <rect x="160" y="18" width="70" height="68" rx="20" fill="#fff4db" />
      <rect x="280" y="10" width="70" height="76" rx="20" fill="#fff4db" />
      <rect x="400" y="18" width="70" height="68" rx="20" fill="#fff4db" />
      <rect x="520" y="0" width="70" height="86" rx="20" fill="#fff4db" />
    </g>
    <g fill="#d4af37">
      <path d="M75 -10c10-18 14-26 10-38 22 18 18 34 -10 38Z" />
      <path d="M195 8c10-18 14-26 10-38 22 18 18 34 -10 38Z" />
      <path d="M315 0c10-18 14-26 10-38 22 18 18 34 -10 38Z" />
      <path d="M435 8c10-18 14-26 10-38 22 18 18 34 -10 38Z" />
      <path d="M555 -10c10-18 14-26 10-38 22 18 18 34 -10 38Z" />
    </g>
  </g>
  <text x="194" y="900" fill="#7a1e2c" font-family="Georgia, serif" font-size="48">Editorial rhythm / seasonal publishing / liturgical atmosphere</text>
</svg>
