<svg xmlns="http://www.w3.org/2000/svg" viewBox="0 0 1400 1050" role="img" aria-labelledby="title desc">
  <title id="title">Editorial desk placeholder</title>
  <desc id="desc">A desk with pages, a rosary, and handwritten notes.</desc>
  <rect width="1400" height="1050" fill="#efe3d2" />
  <rect x="90" y="90" width="1220" height="870" rx="42" fill="#faf5ed" stroke="#ddc5a6" stroke-width="4" />
  <rect x="180" y="190" width="580" height="560" rx="28" fill="#fffdf7" stroke="#d8c1a3" stroke-width="4" />
  <rect x="640" y="250" width="500" height="330" rx="28" transform="rotate(-6 640 250)" fill="#f9eedc" stroke="#d5b89a" stroke-width="4" />
  <rect x="860" y="610" width="260" height="170" rx="22" fill="#7a1e2c" opacity="0.9" />
  <circle cx="1035" cy="694" r="58" fill="#d4af37" opacity="0.88" />
  <path d="M930 715h210" stroke="#f4e7d1" stroke-width="10" stroke-linecap="round" />
  <g fill="#7a1e2c">
    <rect x="250" y="300" width="430" height="12" rx="6" />
    <rect x="250" y="340" width="390" height="12" rx="6" opacity="0.86" />
    <rect x="250" y="380" width="410" height="12" rx="6" opacity="0.76" />
    <rect x="250" y="470" width="430" height="12" rx="6" opacity="0.4" />
    <rect x="250" y="510" width="390" height="12" rx="6" opacity="0.32" />
    <rect x="250" y="550" width="410" height="12" rx="6" opacity="0.24" />
  </g>
  <g fill="none" stroke="#b18f5c" stroke-width="12" stroke-linecap="round">
    <path d="M770 690c55-28 103-26 146 6" />
    <path d="M916 696c42 30 80 35 116 12" />
    <path d="M1032 708c36-18 66-16 94 8" />
  </g>
  <g fill="#d4af37">
    <circle cx="756" cy="700" r="18" />
    <circle cx="804" cy="728" r="14" />
    <circle cx="852" cy="748" r="14" />
    <circle cx="900" cy="760" r="14" />
    <circle cx="948" cy="764" r="14" />
    <circle cx="996" cy="758" r="14" />
    <circle cx="1044" cy="742" r="14" />
  </g>
  <text x="214" y="820" fill="#7a1e2c" font-family="Georgia, serif" font-size="48">Manifesto / notes / editorial direction</text>
  <text x="214" y="874" fill="#6c5a55" font-family="'Trebuchet MS', sans-serif" font-size="30">A warmer placeholder for long-form writing and serious Catholic conversation.</text>
</svg>
