<svg xmlns="http://www.w3.org/2000/svg" viewBox="0 0 1400 1050" role="img" aria-labelledby="title desc">
  <title id="title">Catholic editorial triptych placeholder</title>
  <desc id="desc">Three arched panels with notes for essays, liturgy, and art.</desc>
  <defs>
    <linearGradient id="bg" x1="0" y1="0" x2="1" y2="1">
      <stop offset="0%" stop-color="#f8f1e3" />
      <stop offset="100%" stop-color="#ead8c1" />
    </linearGradient>
    <linearGradient id="archA" x1="0" y1="0" x2="0" y2="1">
      <stop offset="0%" stop-color="#8d2c3b" />
      <stop offset="100%" stop-color="#5e1521" />
    </linearGradient>
    <linearGradient id="archB" x1="0" y1="0" x2="0" y2="1">
      <stop offset="0%" stop-color="#324764" />
      <stop offset="100%" stop-color="#1f304a" />
    </linearGradient>
    <linearGradient id="archC" x1="0" y1="0" x2="0" y2="1">
      <stop offset="0%" stop-color="#3c5b44" />
      <stop offset="100%" stop-color="#24392b" />
    </linearGradient>
  </defs>
  <rect width="1400" height="1050" fill="url(#bg)" />
  <circle cx="1150" cy="170" r="180" fill="#d4af37" opacity="0.16" />
  <circle cx="250" cy="860" r="160" fill="#8d2c3b" opacity="0.08" />
  <rect x="80" y="80" width="1240" height="890" rx="44" fill="#fbf7ef" stroke="#d8bea0" stroke-width="4" />
  <g transform="translate(150 160)">
    <path d="M0 220C0 96 92 0 210 0s210 96 210 220v430H0V220Z" fill="url(#archA)" />
    <path d="M430 220C430 96 522 0 640 0s210 96 210 220v430H430V220Z" fill="url(#archB)" />
    <path d="M860 220C860 96 952 0 1070 0s210 96 210 220v430H860V220Z" fill="url(#archC)" />
    <circle cx="210" cy="118" r="58" fill="#d4af37" opacity="0.85" />
    <circle cx="640" cy="118" r="58" fill="#d4af37" opacity="0.85" />
    <circle cx="1070" cy="118" r="58" fill="#d4af37" opacity="0.85" />
    <g fill="#f6ead7">
      <rect x="86" y="366" width="248" height="12" rx="6" />
      <rect x="86" y="396" width="220" height="12" rx="6" opacity="0.8" />
      <rect x="86" y="426" width="236" height="12" rx="6" opacity="0.7" />
      <rect x="516" y="366" width="248" height="12" rx="6" />
      <rect x="516" y="396" width="220" height="12" rx="6" opacity="0.8" />
      <rect x="516" y="426" width="236" height="12" rx="6" opacity="0.7" />
      <rect x="946" y="366" width="248" height="12" rx="6" />
      <rect x="946" y="396" width="220" height="12" rx="6" opacity="0.8" />
      <rect x="946" y="426" width="236" height="12" rx="6" opacity="0.7" />
    </g>
    <g fill="#f6ead7" font-family="Georgia, serif" font-size="42">
      <text x="210" y="308" text-anchor="middle">ESSAYS</text>
      <text x="640" y="308" text-anchor="middle">LITURGY</text>
      <text x="1070" y="308" text-anchor="middle">ART</text>
    </g>
  </g>
  <g transform="translate(150 840)">
    <text x="0" y="0" fill="#7a1e2c" font-family="Georgia, serif" font-size="38">Placeholder lead artwork</text>
    <text x="0" y="54" fill="#6c5a55" font-family="'Trebuchet MS', sans-serif" font-size="28">For a Catholic journal, studio, or parish culture project.</text>
  </g>
</svg>
