<svg xmlns="http://www.w3.org/2000/svg" viewBox="0 0 1400 1050" role="img" aria-labelledby="title desc">
  <title id="title">Library notes placeholder</title>
  <desc id="desc">Books, paper notes, and review cards.</desc>
  <rect width="1400" height="1050" fill="#efe7d9" />
  <rect x="88" y="88" width="1224" height="874" rx="42" fill="#fbf6ee" stroke="#d8c4aa" stroke-width="4" />
  <rect x="160" y="710" width="1080" height="66" rx="24" fill="#ceb38d" />
  <g transform="translate(200 252)">
    <rect x="0" y="180" width="118" height="280" rx="18" fill="#7a1e2c" />
    <rect x="132" y="120" width="118" height="340" rx="18" fill="#264566" />
    <rect x="264" y="80" width="118" height="380" rx="18" fill="#36553d" />
    <rect x="396" y="146" width="118" height="314" rx="18" fill="#9f5a47" />
    <rect x="528" y="108" width="118" height="352" rx="18" fill="#d4af37" />
    <rect x="660" y="152" width="118" height="308" rx="18" fill="#7a1e2c" opacity="0.78" />
  </g>
  <rect x="824" y="210" width="330" height="250" rx="24" transform="rotate(8 824 210)" fill="#fffdf8" stroke="#d7bea1" stroke-width="4" />
  <g fill="#7a1e2c">
    <rect x="884" y="276" width="190" height="12" rx="6" transform="rotate(8 884 276)" />
    <rect x="884" y="316" width="150" height="12" rx="6" opacity="0.8" transform="rotate(8 884 316)" />
    <rect x="884" y="356" width="168" height="12" rx="6" opacity="0.68" transform="rotate(8 884 356)" />
  </g>
  <rect x="860" y="498" width="230" height="160" rx="24" fill="#f3e2d8" />
  <rect x="1120" y="512" width="84" height="132" rx="18" fill="#264566" />
  <rect x="1138" y="532" width="48" height="10" rx="5" fill="#d4af37" />
  <text x="194" y="880" fill="#7a1e2c" font-family="Georgia, serif" font-size="48">Reading lists, reviews, and annotated Catholic classics</text>
  <text x="194" y="932" fill="#6c5a55" font-family="'Trebuchet MS', sans-serif" font-size="30">Placeholder artwork for the library and review desk.</text>
</svg>
