<svg xmlns="http://www.w3.org/2000/svg" viewBox="0 0 1400 1050" role="img" aria-labelledby="title desc">
  <title id="title">Parish bulletin board placeholder</title>
  <desc id="desc">Pinned notices, a calendar, and event cards for parish life.</desc>
  <rect width="1400" height="1050" fill="#f1e7d7" />
  <rect x="70" y="70" width="1260" height="910" rx="44" fill="#8b5e3d" />
  <rect x="116" y="116" width="1168" height="818" rx="30" fill="#d9b88d" />
  <rect x="178" y="176" width="360" height="286" rx="24" fill="#fffdf8" />
  <rect x="578" y="176" width="284" height="224" rx="24" fill="#f4e7d1" />
  <rect x="898" y="176" width="320" height="330" rx="24" fill="#fffaf2" />
  <rect x="214" y="522" width="424" height="250" rx="24" fill="#7a1e2c" opacity="0.9" />
  <rect x="682" y="478" width="536" height="294" rx="24" fill="#fffdf8" />
  <g fill="#d4af37">
    <circle cx="242" cy="210" r="16" />
    <circle cx="618" cy="210" r="16" />
    <circle cx="934" cy="210" r="16" />
    <circle cx="246" cy="552" r="16" />
    <circle cx="706" cy="512" r="16" />
  </g>
  <g fill="#7a1e2c">
    <rect x="218" y="232" width="240" height="12" rx="6" />
    <rect x="218" y="272" width="272" height="12" rx="6" opacity="0.78" />
    <rect x="218" y="312" width="230" height="12" rx="6" opacity="0.62" />
    <rect x="618" y="236" width="170" height="12" rx="6" />
    <rect x="618" y="274" width="130" height="12" rx="6" opacity="0.76" />
    <rect x="946" y="232" width="192" height="12" rx="6" />
    <rect x="946" y="272" width="228" height="12" rx="6" opacity="0.76" />
    <rect x="946" y="312" width="176" height="12" rx="6" opacity="0.62" />
    <rect x="724" y="558" width="220" height="12" rx="6" />
    <rect x="724" y="598" width="312" height="12" rx="6" opacity="0.8" />
    <rect x="724" y="638" width="276" height="12" rx="6" opacity="0.68" />
  </g>
  <g fill="#f9edd8" font-family="Georgia, serif" font-size="36">
    <text x="244" y="610">TALKS</text>
    <text x="244" y="660">READING GROUP</text>
    <text x="244" y="710">FEAST DAY EVENTS</text>
  </g>
  <text x="184" y="858" fill="#7a1e2c" font-family="Georgia, serif" font-size="48">Parish diaries, local notices, and community texture</text>
</svg>
