<svg xmlns="http://www.w3.org/2000/svg" viewBox="0 0 1400 1050" role="img" aria-labelledby="title desc">
  <title id="title">Processional light placeholder</title>
  <desc id="desc">Candlelight and a soft procession line for feast days and vigils.</desc>
  <defs>
    <linearGradient id="night" x1="0" y1="0" x2="0" y2="1">
      <stop offset="0%" stop-color="#223148" />
      <stop offset="100%" stop-color="#101924" />
    </linearGradient>
  </defs>
  <rect width="1400" height="1050" fill="#f4ece0" />
  <rect x="88" y="88" width="1224" height="874" rx="42" fill="url(#night)" />
  <circle cx="1080" cy="218" r="170" fill="#d4af37" opacity="0.14" />
  <g fill="#d4af37">
    <circle cx="210" cy="170" r="4" />
    <circle cx="290" cy="228" r="5" />
    <circle cx="358" cy="132" r="4" />
    <circle cx="478" cy="198" r="5" />
    <circle cx="612" cy="156" r="4" />
    <circle cx="724" cy="250" r="4" />
    <circle cx="812" cy="146" r="5" />
    <circle cx="924" cy="212" r="4" />
  </g>
  <path d="M180 764c140-60 244-78 358-66 124 12 258 68 364 58 110-10 200-72 318-128" fill="none" stroke="#f6ead8" stroke-width="14" stroke-linecap="round" opacity="0.82" />
  <g transform="translate(220 420)">
    <g>
      <rect x="0" y="98" width="82" height="210" rx="24" fill="#f6ead8" />
      <rect x="180" y="58" width="82" height="250" rx="24" fill="#f6ead8" />
      <rect x="360" y="0" width="82" height="308" rx="24" fill="#f6ead8" />
      <rect x="540" y="52" width="82" height="256" rx="24" fill="#f6ead8" />
      <rect x="720" y="92" width="82" height="216" rx="24" fill="#f6ead8" />
    </g>
    <g fill="#d4af37">
      <path d="M41 84c10-18 16-32 10-50 26 24 18 44 -10 50Z" />
      <path d="M221 44c10-18 16-32 10-50 26 24 18 44 -10 50Z" />
      <path d="M401 -14c10-18 16-32 10-50 26 24 18 44 -10 50Z" />
      <path d="M581 38c10-18 16-32 10-50 26 24 18 44 -10 50Z" />
      <path d="M761 78c10-18 16-32 10-50 26 24 18 44 -10 50Z" />
    </g>
  </g>
  <text x="184" y="910" fill="#f6ead8" font-family="Georgia, serif" font-size="48">Feast days, vigils, and seasonal liturgical atmosphere</text>
</svg>
