<svg xmlns="http://www.w3.org/2000/svg" viewBox="0 0 1400 1050" role="img" aria-labelledby="title desc">
  <title id="title">Studio mix placeholder</title>
  <desc id="desc">Microphone, headphones, and audio waves for interviews and podcasts.</desc>
  <rect width="1400" height="1050" fill="#f2e9dc" />
  <rect x="88" y="88" width="1224" height="874" rx="42" fill="#fbf7ef" stroke="#d7c2a6" stroke-width="4" />
  <circle cx="980" cy="270" r="188" fill="#d4af37" opacity="0.18" />
  <circle cx="390" cy="320" r="210" fill="#7a1e2c" opacity="0.08" />
  <path d="M404 780c0-116 94-210 210-210s210 94 210 210" fill="none" stroke="#264566" stroke-width="42" stroke-linecap="round" />
  <path d="M522 780c0-50 42-92 92-92s92 42 92 92" fill="none" stroke="#d4af37" stroke-width="24" stroke-linecap="round" />
  <rect x="560" y="280" width="108" height="314" rx="54" fill="#7a1e2c" />
  <rect x="588" y="352" width="52" height="126" rx="26" fill="#f4e7d1" opacity="0.86" />
  <rect x="602" y="594" width="24" height="126" rx="12" fill="#7a1e2c" />
  <rect x="540" y="714" width="148" height="24" rx="12" fill="#7a1e2c" />
  <g fill="none" stroke="#36553d" stroke-width="18" stroke-linecap="round">
    <path d="M826 384c40-40 40-164 0-204" />
    <path d="M902 432c62-66 62-260 0-326" />
    <path d="M974 478c84-88 84-350 0-438" />
  </g>
  <g fill="none" stroke="#9f5a47" stroke-width="18" stroke-linecap="round">
    <path d="M402 480c-40-40-40-164 0-204" />
    <path d="M326 528c-62-66-62-260 0-326" />
  </g>
  <text x="180" y="876" fill="#7a1e2c" font-family="Georgia, serif" font-size="48">Interviews, roundtables, and recorded conversation</text>
  <text x="180" y="928" fill="#6c5a55" font-family="'Trebuchet MS', sans-serif" font-size="30">Placeholder artwork for a Catholic audio strand or studio format.</text>
</svg>
