<svg xmlns="http://www.w3.org/2000/svg" width="1600" height="900" viewBox="0 0 1600 900" role="img" aria-labelledby="t d">
<title id="t">Evening Tide & Renewal</title><desc id="d">rest and renewal</desc>
<defs>
  <linearGradient id="g" x1="0" y1="0" x2="1" y2="1">
    <stop offset="0%" stop-color="#23314a"/>
    <stop offset="100%" stop-color="#816c8f"/>
  </linearGradient>
</defs>
<rect width="1600" height="900" fill="url(#g)"/>
<g opacity="0.17" fill="#eddab6">
  <circle cx="1300" cy="130" r="240"/>
  <circle cx="280" cy="780" r="250"/>
  <path d="M0 700 C 200 650, 350 570, 500 500 S 900 360, 1200 480 S 1450 620, 1600 580 V900 H0Z"/>
</g>
<g fill="none" stroke="#efe6d4" stroke-width="5" opacity="0.42">
  <path d="M160 720 L320 350 L460 620 L650 230 L840 650 L1030 280 L1210 590 L1400 180"/>
  <path d="M420 680 C460 520, 470 430, 620 430 C780 430, 780 650, 930 650 C1070 650, 1080 470, 1240 470"/>
</g>
<g fill="#11111144" opacity="0.95">
  <rect x="120" y="620" width="760" height="150" rx="20"/>
</g>
<text x="160" y="688" font-size="62" font-family="Georgia, 'Times New Roman', serif" fill="#f7f3e9">Evening Tide & Renewal</text>
<text x="160" y="735" font-size="28" font-family="system-ui, sans-serif" fill="#f8f5ee">rest and renewal</text>
</svg>